<?xml version="1.0" encoding="UTF-8" standalone="no"?>
<svg
   xmlns:dc="http://purl.org/dc/elements/1.1/"
   xmlns:cc="http://creativecommons.org/ns#"
   xmlns:rdf="http://www.w3.org/1999/02/22-rdf-syntax-ns#"
   xmlns:svg="http://www.w3.org/2000/svg"
   xmlns="http://www.w3.org/2000/svg"
   xmlns:sodipodi="http://sodipodi.sourceforge.net/DTD/sodipodi-0.dtd"
   xmlns:inkscape="http://www.inkscape.org/namespaces/inkscape"
   version="1.0"
   width="479.42627pt"
   height="79.295959pt"
   viewBox="0 0 479.42627 79.295959"
   preserveAspectRatio="xMidYMid meet"
   id="svg1916"
   sodipodi:docname="mojva.svg"
   inkscape:version="1.0.1 (c497b03c, 2020-09-10)">
  <defs
     id="defs1920" />
  <sodipodi:namedview
     pagecolor="#ffffff"
     bordercolor="#666666"
     borderopacity="1"
     objecttolerance="10"
     gridtolerance="10"
     guidetolerance="10"
     inkscape:pageopacity="0"
     inkscape:pageshadow="2"
     inkscape:window-width="2560"
     inkscape:window-height="1387"
     id="namedview1918"
     showgrid="false"
     inkscape:zoom="1.512"
     inkscape:cx="339.77778"
     inkscape:cy="64.734063"
     inkscape:window-x="0"
     inkscape:window-y="25"
     inkscape:window-maximized="0"
     inkscape:current-layer="g1914"
     inkscape:document-rotation="0" />
  <metadata
     id="metadata1892">
Created by potrace 1.16, written by Peter Selinger 2001-2019
<rdf:RDF>
  <cc:Work
     rdf:about="">
    <dc:format>image/svg+xml</dc:format>
    <dc:type
       rdf:resource="http://purl.org/dc/dcmitype/StillImage" />
    <dc:title />
  </cc:Work>
</rdf:RDF>
</metadata>
  <g
     transform="matrix(0.1,0,0,-0.1,-16,310.95135)"
     fill="#000000"
     stroke="none"
     id="g1914">
    <g
       id="g73">
      <path
         d="m 2162,3095 c -9,-11 -9,-15 -1,-15 6,0 20,-12 31,-26 12,-14 32,-30 47,-36 14,-6 21,-12 14,-15 -6,-2 -29,7 -50,20 -21,14 -49,28 -63,32 -14,3 -4,-7 25,-24 28,-17 42,-31 33,-31 -9,0 -20,5 -23,10 -3,6 -14,10 -23,9 -11,0 -12,-3 -4,-6 6,-2 12,-9 12,-14 0,-6 -8,-6 -19,1 -24,12 -44,13 -37,2 3,-5 -57,-16 -132,-26 -75,-9 -155,-21 -177,-26 -37,-8 -66,-12 -205,-25 -78,-8 -96,-10 -177,-25 -58,-10 -90,-11 -158,-1 -47,6 -91,8 -98,4 -7,-4 -21,-9 -32,-10 -10,-2 -34,-12 -53,-23 -18,-11 -39,-20 -46,-20 -7,0 -30,-13 -50,-29 -24,-20 -62,-35 -114,-46 -67,-15 -91,-16 -192,-6 -63,7 -125,14 -137,18 -17,4 -23,1 -23,-11 0,-9 -4,-16 -10,-16 -5,0 -10,5 -10,10 0,12 -22,9 -33,-5 -5,-6 -7,2 -4,18 2,15 2,27 0,27 -10,0 -32,-28 -26,-34 4,-3 -3,-6 -15,-6 -11,0 -24,-5 -28,-12 -4,-6 -3,-8 4,-4 6,3 13,2 17,-4 4,-6 12,-7 18,-3 7,4 7,1 -1,-9 -8,-9 -20,-14 -28,-11 -8,3 -18,-4 -23,-18 -9,-23 -10,-23 -11,6 0,26 -2,28 -11,12 -6,-10 -9,-34 -7,-53 2,-19 0,-34 -5,-34 -5,0 -7,23 -5,50 3,28 1,50 -3,50 -5,0 -9,-12 -9,-26 0,-14 -4,-23 -10,-19 -6,3 -10,-4 -11,-17 0,-13 -3,-17 -6,-10 -8,20 -25,13 -18,-8 4,-11 2,-20 -4,-20 -6,0 -11,-4 -11,-10 0,-5 7,-10 15,-10 17,0 20,-16 4,-25 -17,-11 39,-35 71,-31 27,3 50,-18 35,-32 -3,-3 -5,0 -5,8 0,10 -3,10 -15,0 -8,-6 -23,-9 -34,-5 -11,3 -29,0 -40,-7 -17,-10 -20,-19 -15,-44 4,-23 2,-33 -10,-37 -9,-4 -16,-2 -16,3 0,6 5,10 10,10 6,0 10,7 10,15 0,9 -6,12 -16,8 -16,-6 -15,-27 1,-66 6,-13 2,-17 -15,-17 -19,0 -21,-4 -16,-25 5,-18 2,-25 -9,-25 -8,0 -15,-9 -15,-19 0,-18 2,-19 31,-4 17,8 33,21 36,29 4,11 10,11 34,-2 16,-8 29,-20 29,-26 0,-9 3,-9 12,0 10,10 10,15 -1,21 -9,6 -10,11 -2,15 6,4 11,2 11,-3 0,-21 27,-10 63,24 20,19 39,35 42,35 14,0 65,42 60,50 -3,4 7,16 22,25 25,17 26,17 20,-1 -6,-17 -6,-17 8,1 9,11 18,18 21,16 7,-6 74,21 74,29 0,10 108,32 173,35 31,2 56,7 55,11 -2,5 -7,9 -13,10 -38,4 -40,6 -20,15 17,8 16,8 -7,4 -15,-3 -30,-1 -33,5 -3,5 -17,10 -31,10 -13,0 -24,3 -24,6 0,17 23,44 37,44 14,0 14,3 5,12 -10,10 -15,10 -20,1 -10,-16 -33,-18 -62,-6 -22,9 -18,11 35,17 33,4 103,16 155,26 125,24 189,19 176,-15 -2,-7 2,-16 10,-19 22,-8 26,-7 19,4 -3,6 4,10 17,10 18,0 20,-2 8,-10 -17,-11 -14,-12 30,-12 47,0 50,1 50,17 0,18 29,26 101,29 54,2 67,14 32,27 -14,6 -13,8 8,8 19,1 28,-5 32,-20 4,-16 10,-20 24,-14 10,4 42,8 70,9 35,1 55,6 58,15 8,20 -2,26 -19,12 -8,-7 -17,-8 -20,-3 -3,5 12,14 34,20 28,7 40,6 43,-2 3,-7 9,-6 22,4 13,11 52,15 159,17 178,3 409,14 418,19 3,2 18,0 31,-5 18,-7 27,-7 29,1 3,7 10,8 18,3 15,-9 280,-14 280,-4 0,8 73,5 88,-4 8,-5 12,-3 12,8 0,12 4,14 19,5 11,-5 27,-7 35,-4 16,6 51,-21 51,-39 0,-6 6,-12 13,-14 16,-6 15,2 -3,37 -16,31 -11,37 15,20 9,-6 17,-5 22,3 6,9 12,9 28,0 24,-16 33,-17 25,-3 -3,6 1,10 9,10 8,0 18,-4 21,-10 10,-16 25,-12 19,5 -7,18 0,19 27,5 12,-7 19,-7 19,-1 0,6 18,7 43,5 23,-3 51,-5 62,-5 21,0 47,-23 58,-52 4,-10 11,-15 17,-12 6,4 2,18 -11,36 -12,17 -19,32 -17,35 8,7 58,-47 58,-62 0,-8 5,-14 10,-14 14,0 12,12 -6,38 -9,13 -14,25 -11,28 8,9 37,-8 37,-22 0,-8 5,-14 10,-14 6,0 10,-7 10,-15 0,-8 7,-15 15,-15 21,0 19,10 -7,37 -24,26 -17,43 12,25 15,-9 19,-8 22,6 3,15 5,15 21,-3 10,-11 26,-31 36,-44 10,-13 23,-22 31,-19 9,3 5,12 -15,32 -18,18 -24,31 -17,38 6,6 17,-2 33,-24 12,-18 24,-35 25,-37 2,-1 8,0 14,4 8,5 4,15 -11,31 -12,13 -20,26 -17,30 6,5 9,3 53,-51 27,-32 43,-29 25,5 -10,18 -9,21 2,18 7,-2 17,-13 22,-25 7,-15 20,-20 52,-22 24,0 46,4 49,9 5,8 11,8 20,0 15,-12 77,-16 93,-6 7,4 13,4 13,-1 7,-48 6,-63 -7,-74 -11,-9 -14,-8 -14,4 0,24 -31,30 -37,7 -4,-16 -8,-18 -19,-9 -8,6 -14,19 -14,28 -1,14 -2,14 -14,-1 -7,-10 -16,-18 -20,-18 -3,0 -6,8 -6,18 0,12 -2,14 -8,4 -7,-11 -90,-23 -156,-23 -11,0 -27,-4 -37,-9 -12,-7 -19,-6 -23,3 -5,9 -7,9 -12,0 -7,-15 -44,-17 -44,-3 0,6 -4,10 -10,10 -5,0 -10,-7 -10,-15 0,-18 -27,-20 -33,-2 -3,8 -13,4 -31,-12 -22,-21 -26,-22 -26,-7 0,23 -25,9 -52,-30 l -20,-29 6,33 6,32 -27,-17 -26,-17 5,27 c 5,25 -6,39 -14,19 -1,-5 -20,-12 -42,-15 -35,-6 -38,-4 -33,15 5,16 3,18 -6,9 -17,-17 -47,-13 -47,6 0,13 -3,14 -12,5 -16,-16 -28,-15 -28,3 0,19 -7,19 -27,0 -12,-12 -18,-13 -29,-4 -11,9 -19,6 -39,-15 -14,-15 -25,-32 -25,-38 0,-6 -8,-17 -17,-24 -25,-17 -10,-28 18,-13 17,9 24,9 27,0 2,-7 14,-8 29,-5 18,5 24,3 19,-5 -11,-17 15,-13 36,6 14,13 18,13 18,2 0,-11 13,-14 50,-13 27,0 47,-2 45,-6 -2,-4 16,-6 40,-5 30,2 46,-2 49,-12 3,-8 11,-11 17,-7 8,4 7,9 -2,16 -10,7 -8,8 6,3 41,-15 63,-17 83,-6 12,6 23,7 26,2 3,-5 22,-3 43,4 22,8 46,10 58,5 12,-4 28,-4 37,1 11,6 19,5 23,-2 5,-7 13,-5 26,7 17,16 19,16 19,1 0,-22 13,-21 33,1 13,14 28,18 66,15 28,-3 52,0 56,6 4,7 16,2 32,-14 l 27,-24 28,20 c 25,18 29,18 34,5 8,-20 24,-21 24,-1 0,8 6,12 14,9 8,-3 28,2 45,11 17,9 31,11 31,5 0,-5 7,-10 16,-10 11,0 15,8 13,28 -2,15 2,36 9,47 11,19 13,19 22,3 17,-28 31,-22 20,8 -17,43 -11,49 14,15 15,-21 27,-28 31,-21 4,6 -5,24 -19,39 -26,27 -34,51 -17,51 5,0 16,-10 25,-22 l 17,-23 -5,22 c -3,20 -1,21 15,12 10,-5 19,-16 19,-24 0,-8 4,-15 9,-15 5,0 7,9 4,20 -7,28 11,25 31,-5 15,-22 19,-24 31,-11 8,8 15,20 15,26 0,21 25,4 28,-19 4,-27 -15,-53 -37,-49 -18,3 -41,-9 -41,-22 0,-11 29,-40 40,-40 5,0 16,14 25,30 9,18 23,30 35,30 11,0 20,3 20,8 0,4 16,16 35,26 33,18 43,45 15,38 -11,-3 -11,0 0,12 16,20 41,21 34,1 -10,-26 6,-38 27,-19 16,14 24,15 44,6 51,-24 50,-78 -3,-106 l -27,-15 33,-7 c 20,-4 32,-13 32,-23 1,-31 30,21 30,53 1,21 9,37 26,49 24,18 26,18 38,1 12,-16 14,-16 24,2 6,10 12,14 12,7 0,-6 -4,-14 -9,-18 -5,-3 -12,-18 -16,-34 -10,-47 40,-110 115,-146 43,-21 63,-26 68,-18 4,7 40,13 84,15 62,3 75,1 66,-9 -6,-7 -17,-13 -24,-13 -8,0 -22,-4 -32,-10 -26,-14 -110,-40 -132,-40 -11,0 -20,6 -20,13 0,6 -5,4 -11,-5 -5,-10 -18,-18 -27,-18 -15,-1 -15,-2 1,-11 10,-6 26,-7 35,-3 9,4 22,8 27,9 6,0 21,4 35,7 14,4 75,16 135,28 128,24 203,52 227,85 16,21 16,25 2,39 -8,9 -13,20 -9,26 7,11 -127,81 -201,104 -27,9 -98,31 -157,50 -202,65 -433,112 -740,151 -77,10 -290,18 -610,25 -590,11 -728,17 -764,31 -16,5 -68,29 -117,51 -59,27 -91,37 -94,30 -2,-7 -15,-12 -30,-12 -25,0 -25,1 -6,15 16,13 16,14 2,9 -10,-3 -18,-1 -18,5 0,16 -23,13 -38,-4 z m 1448,-305 c 0,-15 -14,-12 -31,8 -23,27 -12,49 12,23 10,-11 19,-25 19,-31 z m 30,40 c 0,-5 7,-10 16,-10 8,0 12,5 9,10 -9,14 8,13 23,-2 14,-14 16,-48 3,-48 -5,0 -12,7 -15,16 -5,13 -9,14 -21,4 -13,-11 -18,-10 -29,6 -15,19 -12,34 5,34 5,0 9,-4 9,-10 z m 106,-70 c 20,0 24,-5 24,-27 -1,-24 -2,-25 -11,-10 -13,23 -36,22 -44,-3 -9,-29 -25,-15 -25,22 0,23 4,29 16,24 9,-3 27,-6 40,-6 z m 852,-15 c 75,-38 55,-150 -32,-173 -44,-13 -79,-3 -107,31 -37,45 -11,114 55,143 40,17 47,17 84,-1 z M 670,2690 c 0,-5 9,-10 21,-10 14,0 19,-5 17,-17 -6,-30 -68,-8 -68,23 0,8 7,14 15,14 8,0 15,-4 15,-10 z m -161,-32 c 10,-16 10,-23 2,-26 -6,-2 -11,-10 -11,-18 0,-8 -3,-14 -8,-14 -4,0 -7,18 -7,40 0,46 4,49 24,18 z m -151,-57 c 11,-7 11,-9 -2,-14 -20,-8 -48,2 -40,14 7,11 25,11 42,0 z"
         id="path1894"
         style="fill:#333333" />
      <path
         d="m 4570,2732 c -19,-6 -44,-31 -59,-61 -10,-18 -9,-27 4,-47 8,-13 24,-24 35,-24 25,0 70,49 69,75 0,22 -17,66 -18,50 -1,-6 -4,-6 -9,1 -4,6 -14,9 -22,6 z"
         id="path1896"
         style="fill:#333333" />
      <path
         d="m 258,2831 c 7,-4 12,-12 11,-17 -1,-5 -1,-18 0,-29 1,-16 3,-17 10,-5 6,8 7,19 4,25 -3,5 2,2 13,-7 14,-14 16,-20 6,-30 -7,-7 -12,-21 -12,-32 0,-17 3,-16 16,9 17,33 11,75 -11,75 -8,0 -15,5 -15,10 0,6 -8,10 -17,10 -14,0 -15,-2 -5,-9 z"
         id="path1898"
         style="fill:#333333" />
      <path
         d="m 330,2830 c 0,-5 7,-7 15,-4 8,4 15,2 15,-4 0,-6 -6,-12 -12,-14 -10,-4 -10,-10 0,-29 12,-23 12,-23 8,-1 -2,13 2,26 12,32 15,8 15,11 2,20 -19,12 -40,13 -40,0 z"
         id="path1900"
         style="fill:#333333" />
      <path
         d="m 2693,2795 c 0,-18 5,-25 18,-25 11,0 19,4 19,8 0,5 -8,17 -19,26 -18,16 -18,16 -18,-9 z"
         id="path1902"
         style="fill:#333333" />
      <path
         d="m 2719,2704 c -8,-10 -23,-33 -35,-52 -16,-25 -23,-31 -29,-21 -5,7 -4,14 3,17 7,2 12,11 12,19 0,11 -6,9 -25,-8 -33,-32 -31,-46 4,-47 31,-1 71,29 71,54 0,8 7,17 15,20 16,7 21,34 6,34 -5,0 -15,-7 -22,-16 z"
         id="path1904"
         style="fill:#333333" />
      <path
         d="m 4180,2681 c 0,-12 6,-21 16,-21 9,0 14,7 12,17 -5,25 -28,28 -28,4 z"
         id="path1906"
         style="fill:#333333" />
      <path
         d="m 160,2683 c 0,-5 11,-26 25,-48 13,-22 25,-47 25,-55 0,-19 40,-21 40,-3 0,7 -7,10 -15,7 -10,-4 -15,0 -15,15 0,13 6,21 16,21 14,0 14,3 4,15 -9,11 -15,12 -20,5 -8,-12 -22,2 -33,33 -6,17 -27,24 -27,10 z"
         id="path1908"
         style="fill:#333333" />
      <path
         d="m 2487,2659 c -18,-11 -24,-39 -7,-39 10,0 34,39 28,45 -2,2 -11,-1 -21,-6 z"
         id="path1910"
         style="fill:#333333" />
      <path
         d="m 1258,2625 c -3,-3 -31,-8 -64,-11 -39,-4 -66,-13 -81,-26 -24,-22 -70,-21 -65,1 3,12 0,12 -12,2 -8,-7 -20,-10 -27,-6 -8,6 -7,10 2,16 11,7 11,9 -2,9 -24,0 -33,-29 -11,-37 9,-3 42,-16 72,-28 89,-37 92,-38 149,-37 30,0 63,-4 74,-10 14,-7 17,-7 13,1 -10,15 37,14 52,-1 9,-9 12,-9 12,0 0,12 31,9 70,-5 34,-13 127,-12 162,2 21,8 45,12 54,8 12,-4 15,-2 12,8 -5,14 -50,27 -105,30 -18,1 -33,7 -33,12 0,6 35,8 88,5 66,-4 93,-1 110,10 27,18 29,32 2,25 -11,-3 -20,-1 -20,3 0,16 -55,10 -67,-7 -10,-13 -27,-15 -108,-11 -59,3 -95,1 -95,-6 0,-5 9,-12 21,-15 12,-3 18,-10 14,-16 -3,-6 2,-12 12,-12 10,-1 25,-3 33,-4 8,-1 23,-3 33,-4 9,0 17,-6 17,-12 0,-6 -8,-8 -19,-4 -10,3 -39,6 -64,7 -34,0 -44,4 -40,14 6,17 -9,18 -26,2 -10,-11 -11,-10 -6,5 8,20 -5,23 -23,5 -9,-9 -12,-9 -12,0 0,7 7,15 15,18 32,13 14,27 -27,21 -23,-3 -37,-2 -30,2 15,9 3,51 -15,51 -12,0 -13,-3 -4,-13 6,-8 8,-17 4,-20 -11,-12 -21,-7 -26,13 -5,18 -27,27 -39,15 z"
         id="path1912"
         style="fill:#333333" />
      <path
         style="fill:#ffcc00;stroke:#ffffff;stroke-width:4.96032;stroke-opacity:0"
         d="m 4513.1082,2571.8108 c -36.3795,10.9581 -68.7676,47.2186 -68.5549,76.7516 0.264,36.6631 33.727,78.5204 77.9167,97.4624 28.9263,12.3992 41.4344,11.9034 70.4349,-2.7924 53.0569,-26.8859 63.9833,-89.1192 23.7018,-134.9979 -24.5745,-27.989 -73.8867,-45.3433 -103.4985,-36.4237 z m 55.0926,32.2258 c 17.9637,9.2895 48.0066,44.175 52.1049,60.5037 4.5244,18.027 -10.721,67.7323 -19.716,64.2806 -3.86,-1.4812 -8.3374,-0.5588 -9.9499,2.0506 -10.8158,17.5003 -58.2688,-13.5917 -77.1102,-50.5239 -14.2536,-27.9393 -12.3821,-45.2021 7.1452,-65.907 18.4117,-19.5221 26.4785,-21.288 47.526,-10.404 z"
         id="path1922" />
    </g>
  </g>
</svg>
