<svg version="1" xmlns="http://www.w3.org/2000/svg" width="1272" height="1272" viewBox="0 0 954.000000 954.000000"><path d="M0 180.6V214l2.2.5c1.3.3 17 3.2 35 6.5 42.8 7.8 52.6 9.8 53.9 10.5.5.4-3.6 3.8-9.3 7.7-38.8 26.3-62.7 57.3-72.4 93.6-3.4 12.8-4.3 33.1-2.1 47.7 9.6 62.2 66.3 115.2 149.1 139.4 76.8 22.5 166.8 15.3 234.6-18.9 43-21.6 76-54.1 91.5-89.7 10.4-24.1 12.8-53 6.4-76.9-2.8-10.3-3.5-15.4-1.9-15.4 2.4 0 31.5 7.3 32.6 8.1.8.7 0 3.3-3 9-4 7.9-4.1 8.4-4.1 17.8 0 9.2.2 10.1 3.7 17.3 6.7 13.5 20.7 24.3 38.8 30 6.6 2 9.5 2.3 23.5 2.3s16.9-.3 23.5-2.3c21.2-6.7 36.8-20.6 41.4-37.1.9-3.4 2.1-6.1 2.6-6.1 2.8 0 118.7 29.3 124.4 31.4 9 3.4 15.8 7.2 19.1 10.6l2.7 2.8-2.5 5.4c-3.5 7.7-14.1 22.1-20.7 28.2-3.2 2.9-11.1 8.9-17.6 13.3C718.3 472 616.5 533.4 503.5 599c-22 12.7-49.4 28.6-60.9 35.3-30.6 17.8-35 22.5-35 36.7.1 8.7 1.6 12.4 7.7 18.7 2.2 2.4 3.8 4.5 3.5 4.8C417.1 696.3 334 720 298 729c-79.7 20-159.9 32.7-264.5 42-12.6 1.1-25.4 2.2-28.2 2.6l-5.3.5V839h2.6c4.5 0 67.1-6 94.9-9 106.5-11.8 179.2-25.6 273.2-51.5 124-34.3 279.5-89 434.3-152.8 61.2-25.2 90.7-38.8 106.6-49.1 12.4-8.1 26.1-22 30.5-31.1 3.2-6.6 3.4-7.5 3.4-18 0-10.8-.1-11.2-3.9-19-8.8-17.9-26.6-29.1-52.4-33-14.4-2.2-29.1-1.9-49 1.1l-4.3.6 3.1-3.3c4.9-5.3 17.3-21.7 22.5-29.7 11.5-17.9 16.7-34.7 14.6-47.5-1.3-7.6-6-18.8-11.2-26.3-10.4-15.1-29.5-28.1-57.7-39.1-11.4-4.4-17.6-6-113.7-29.8-25.3-6.2-71.6-17.7-103-25.4-31.3-7.7-86.2-21.3-122-30.1l-65-16-16.5-7.9c-19.1-9.2-36.4-15.6-55.2-20.6-27.2-7.1-61.8-11.3-85.3-10.2-12 .5-12.1.5-54.5-7.8-64.3-12.7-100.4-19.5-176.2-33.3L0 147.3v33.3zm292 75.8c60.5 11.5 106.2 43.3 119.4 82.9 4.8 14.3 4.2 35-1.3 49.2-7.4 19.2-27.7 40.2-52.2 53.9-61.6 34.7-141.9 37.1-206.4 6.1-34.7-16.6-57.6-41.2-64.6-69.5-3.1-12.4-2.4-29 1.8-41.2 11.1-32 38.9-56.4 80.5-70.7 15.1-5.2 38.1-10.9 48.3-12 13.3-1.5 64.6-.6 74.5 1.3z"/><path d="M240.5 297.6c-1.6.2-7 .9-11.8 1.5-29.9 3.7-60 18.2-72 34.7-25 34 3.9 71.2 64.6 83.4 9.5 1.9 14.5 2.2 32.2 2.2 29.5 0 46.4-3.4 68-13.8 65.3-31.3 43.2-92-38.5-106-9.2-1.6-36.4-2.9-42.5-2zM475 498.7c-1.4.2-8.6 1.3-16 2.4-35.9 5.5-75.4 14.5-103.3 23.5-85.2 27.8-128.8 69.1-143.8 136.4-2.6 11.7-2.4 18.3.5 24.7 8.9 19.1 38 27 61.4 16.7 6.3-2.8 15.3-11 17.5-16.2 1-2 3-9.6 4.6-16.8 1.6-7.2 4.4-16.6 6.2-20.9 17.6-42.4 67-66.2 173.9-84 24.1-4 29.4-5.4 36.2-9.7 9.8-6.1 14.7-14.4 14.8-24.6 0-10.5-4.3-17.8-14.3-24.3-8.5-5.5-17-7.9-27.1-7.8-4.4.1-9.2.4-10.6.6z"/></svg>