<svg version="1" xmlns="http://www.w3.org/2000/svg" width="1068" height="1068" viewBox="0 0 801.000000 801.000000"><path d="M0 248.7c0 72.9.2 132.4.5 132.1 1.8-1.8 6.6-25.1 7.6-36.6 1.7-21.2 5.4-33.2 14.4-45.7 5.4-7.6 11.3-13 24.7-22.7 16.7-11.9 22.4-13.9 29-10.1 1.6 1 6.2 6.1 10.1 11.3 16.5 21.8 18.8 22 30.1 3.1 5.8-9.9 11.7-16.4 14.3-15.9 1.5.3 1.8 1.3 1.7 5.6-.2 7.1-4 14.4-10.7 21-8.8 8.5-18.3 30.8-20.8 48.9-4.7 33.1 15.9 75.5 55.2 113.9 27.7 26.9 57.3 46.9 98.8 66.4 36.4 17.1 58.6 24.3 68.5 22 2-.4 5.3-2.3 7.4-4.2 4.1-3.7 8.9-5.8 20.7-8.7 26.3-6.6 92.9-11.8 139.6-10.9 18.8.3 21.9.6 25.4 2.3 6.1 3.1 5.9 5.5-1.2 12.5-8.5 8.2-18.1 12.7-30.2 14-11.7 1.3-23.5 5.2-38.2 12.5-26.6 13.4-81.1 32-125.5 42.9-30.2 7.4-43.3 8.2-52.9 3.4-6.5-3.3-8.5-5.7-10-11.5-.8-3.1-1.8-4.9-3-5.1-2.2-.5-6.6 3.7-11.5 10.8-9.2 13.5-20.4 20.3-35.9 21.9-5.2.6-9.9 1.5-10.5 2.1-1.5 1.6 3.2 5.5 13.1 10.7 10.1 5.4 17.6 7.3 28.3 7.3 7 0 10-.6 17-3.1 19.4-7 29.1-9.9 38.3-11.3 5.4-.9 17.5-3.4 27-5.6 34.9-8.2 60.1-13.5 143.2-30.1 91.1-18.2 113.9-23.1 144.5-31 66.7-17.1 115.3-35.7 146-55.6 16.6-10.8 25.8-19.8 37.4-36.4 11.5-16.6 11.4-22.5-.5-35.5-8.1-8.9-13.6-17.5-15.5-24.1-1.3-4.5-1.4-6.2-.3-10.2 1.2-4.6 1.1-5-1.3-8.1-12.9-16.5-99.9-64-177.9-97.3-38.5-16.4-58-23.1-165.9-57.2-27.2-8.6-65.5-20.8-85-27-94.2-30.1-157.5-48.2-245-70C61.5 129.6 3.5 116 1.1 116 .3 116 0 150.9 0 248.7zm326 4.2c12 4.1 33.7 14.5 42.1 20.1 23.4 15.9 39.4 41 43.9 69.2 1.6 9.5.7 34.7-1.3 43-9.3 36.4-30 64.3-61.5 82.7-13.6 7.9-34.7 15.1-54.7 18.6-10.5 1.9-31.1 2.1-40.8.6-22.4-3.7-43.9-15.2-61.7-33.2-19.9-20.1-29.5-40.1-30.7-64.5-1.2-24 5.2-46 20.2-68.5 20.3-30.5 52.3-52.7 97-67.3 12.7-4.1 15.3-4.5 27-4.2 9.4.2 12.4.7 20.5 3.5z"/><path d="M321.5 281.4c-24.2 7.7-52.3 35.9-72.8 73.1-7.9 14.3-10 21.1-9.5 31.1.3 7.5.7 9 5.5 18.5 9.5 18.8 21.1 31.3 35.8 38.4 9.1 4.4 15.5 5.2 23.1 3 13.1-3.8 27.1-13.1 42.4-28.5 12.6-12.5 21.8-25 28.4-38.5 8.1-16.5 9-22.7 6-40.6-3.7-21.6-14.8-51.6-18.9-51.2-.5.1-1.7 2-2.5 4.4-.8 2.3-2.1 4.4-2.9 4.7-.8.3-4.1-2.4-7.6-6.1-5-5.3-7.2-6.8-11.5-8.1-6.3-1.9-10.1-1.9-15.5-.2z"/></svg>